<svg width="276" height="153" viewBox="0 0 276 153" fill="none" xmlns="http://www.w3.org/2000/svg">
<g clip-path="url(#clip0_21_630)">
<path d="M0.661133 134.908H275.573" stroke="#1C79F6" stroke-linecap="round" stroke-linejoin="round"/>
<path d="M43.9243 12.4352C43.9243 12.4352 40.5298 8.1377 37.3622 8.1377C34.1945 8.1377 33.7409 11.7554 32.8337 12.2086C31.9264 12.6618 28.0822 10.1731 26.4984 10.8529C24.9146 11.5327 24.4763 14.0174 24.4763 14.0174C24.4763 14.0174 21.5317 12.4352 20.1746 13.1149C18.8176 13.7947 17.4606 15.8263 17.4606 15.8263L13.8394 17.4086H51.8472C51.8472 17.4086 51.8472 13.1149 49.3562 12.4352C46.8651 11.7554 46.4153 15.3616 43.9243 12.4352Z" stroke="#1C79F6" stroke-miterlimit="10"/>
<path d="M138.827 25.6194C138.827 25.6194 136.789 23.0425 134.886 23.0425C132.983 23.0425 132.71 25.2123 132.168 25.485C131.626 25.7577 129.312 24.2637 128.363 24.6708C127.413 25.0779 127.14 26.5911 127.14 26.5911C127.14 26.5911 125.372 25.6386 124.557 26.0457C123.742 26.4528 122.927 27.6779 122.927 27.6779L120.751 28.6265H143.586C143.586 28.6265 143.586 26.0457 142.09 25.6386C140.595 25.2315 140.322 27.3899 138.827 25.6194Z" stroke="#1C79F6" stroke-miterlimit="10"/>
<path d="M194.595 15.112C194.595 15.112 192.558 12.5312 190.655 12.5312C188.752 12.5312 188.479 14.7049 187.937 14.9738C187.395 15.2426 185.081 13.7525 184.131 14.1596C183.182 14.5667 182.909 16.0798 182.909 16.0798C182.909 16.0798 181.14 15.1312 180.325 15.5383C179.51 15.9454 178.695 17.1667 178.695 17.1667L176.52 18.1153H199.354C199.354 18.1153 199.354 15.5383 197.859 15.1312C196.363 14.7242 196.09 16.8748 194.595 15.112Z" stroke="#1C79F6" stroke-miterlimit="10"/>
<path d="M10.0142 101.058H22.1927V65.7101H32.9257V49.1961H53.2271V81.9361H58.4475V18.4341H80.7787V46.2966H94.6986V22.2515H118.479V76.4288H150.963V44.0538H172.179V76.7207H185.184V80.4882H193.307V55.2257H198.816V80.4882H202.587V53.8316H208.676V79.3284H216.218V36.4458H229.846V64.5503H237.677V22.5395H256.821V107.433" stroke="#1C79F6" stroke-miterlimit="10" stroke-linecap="round"/>
<path d="M27.7052 71.5054H25.3833V74.4011H27.7052V71.5054Z" stroke="#1C79F6" stroke-miterlimit="10" stroke-linecap="round"/>
<path d="M31.4767 71.5054H29.1548V74.4011H31.4767V71.5054Z" stroke="#1C79F6" stroke-miterlimit="10" stroke-linecap="round"/>
<path d="M35.2477 71.5054H32.9258V74.4011H35.2477V71.5054Z" stroke="#1C79F6" stroke-miterlimit="10" stroke-linecap="round"/>
<path d="M39.0187 71.5054H36.6968V74.4011H39.0187V71.5054Z" stroke="#1C79F6" stroke-miterlimit="10" stroke-linecap="round"/>
<path d="M42.7863 71.5054H40.4644V74.4011H42.7863V71.5054Z" stroke="#1C79F6" stroke-miterlimit="10" stroke-linecap="round"/>
<path d="M46.5573 71.5054H44.2354V74.4011H46.5573V71.5054Z" stroke="#1C79F6" stroke-miterlimit="10" stroke-linecap="round"/>
<path d="M64.2487 50.064H61.9268V52.9597H64.2487V50.064Z" stroke="#1C79F6" stroke-miterlimit="10" stroke-linecap="round"/>
<path d="M68.0197 50.064H65.6978V52.9597H68.0197V50.064Z" stroke="#1C79F6" stroke-miterlimit="10" stroke-linecap="round"/>
<path d="M71.7907 50.064H69.4688V52.9597H71.7907V50.064Z" stroke="#1C79F6" stroke-miterlimit="10" stroke-linecap="round"/>
<path d="M75.5582 50.064H73.2363V52.9597H75.5582V50.064Z" stroke="#1C79F6" stroke-miterlimit="10" stroke-linecap="round"/>
<path d="M64.2487 44.8486H61.9268V47.7443H64.2487V44.8486Z" stroke="#1C79F6" stroke-miterlimit="10" stroke-linecap="round"/>
<path d="M68.0197 44.8486H65.6978V47.7443H68.0197V44.8486Z" stroke="#1C79F6" stroke-miterlimit="10" stroke-linecap="round"/>
<path d="M71.7907 44.8486H69.4688V47.7443H71.7907V44.8486Z" stroke="#1C79F6" stroke-miterlimit="10" stroke-linecap="round"/>
<path d="M75.5582 44.8486H73.2363V47.7443H75.5582V44.8486Z" stroke="#1C79F6" stroke-miterlimit="10" stroke-linecap="round"/>
<path d="M64.2487 39.6333H61.9268V42.529H64.2487V39.6333Z" stroke="#1C79F6" stroke-miterlimit="10" stroke-linecap="round"/>
<path d="M68.0197 39.6333H65.6978V42.529H68.0197V39.6333Z" stroke="#1C79F6" stroke-miterlimit="10" stroke-linecap="round"/>
<path d="M71.7907 39.6333H69.4688V42.529H71.7907V39.6333Z" stroke="#1C79F6" stroke-miterlimit="10" stroke-linecap="round"/>
<path d="M75.5582 39.6333H73.2363V42.529H75.5582V39.6333Z" stroke="#1C79F6" stroke-miterlimit="10" stroke-linecap="round"/>
<path d="M64.2487 34.418H61.9268V37.3137H64.2487V34.418Z" stroke="#1C79F6" stroke-miterlimit="10" stroke-linecap="round"/>
<path d="M68.0197 34.418H65.6978V37.3137H68.0197V34.418Z" stroke="#1C79F6" stroke-miterlimit="10" stroke-linecap="round"/>
<path d="M71.7907 34.418H69.4688V37.3137H71.7907V34.418Z" stroke="#1C79F6" stroke-miterlimit="10" stroke-linecap="round"/>
<path d="M75.5582 34.418H73.2363V37.3137H75.5582V34.418Z" stroke="#1C79F6" stroke-miterlimit="10" stroke-linecap="round"/>
<path d="M64.2487 29.2026H61.9268V32.0983H64.2487V29.2026Z" stroke="#1C79F6" stroke-miterlimit="10" stroke-linecap="round"/>
<path d="M68.0197 29.2026H65.6978V32.0983H68.0197V29.2026Z" stroke="#1C79F6" stroke-miterlimit="10" stroke-linecap="round"/>
<path d="M71.7907 29.2026H69.4688V32.0983H71.7907V29.2026Z" stroke="#1C79F6" stroke-miterlimit="10" stroke-linecap="round"/>
<path d="M75.5582 29.2026H73.2363V32.0983H75.5582V29.2026Z" stroke="#1C79F6" stroke-miterlimit="10" stroke-linecap="round"/>
<path d="M79.3292 50.064H77.0073V52.9597H79.3292V50.064Z" stroke="#1C79F6" stroke-miterlimit="10" stroke-linecap="round"/>
<path d="M83.1007 50.064H80.7788V52.9597H83.1007V50.064Z" stroke="#1C79F6" stroke-miterlimit="10" stroke-linecap="round"/>
<path d="M64.2487 55.8594H61.9268V58.7551H64.2487V55.8594Z" stroke="#1C79F6" stroke-miterlimit="10" stroke-linecap="round"/>
<path d="M68.0197 55.8594H65.6978V58.7551H68.0197V55.8594Z" stroke="#1C79F6" stroke-miterlimit="10" stroke-linecap="round"/>
<path d="M71.7907 55.8594H69.4688V58.7551H71.7907V55.8594Z" stroke="#1C79F6" stroke-miterlimit="10" stroke-linecap="round"/>
<path d="M75.5582 55.8594H73.2363V58.7551H75.5582V55.8594Z" stroke="#1C79F6" stroke-miterlimit="10" stroke-linecap="round"/>
<path d="M79.3292 55.8594H77.0073V58.7551H79.3292V55.8594Z" stroke="#1C79F6" stroke-miterlimit="10" stroke-linecap="round"/>
<path d="M83.1007 55.8594H80.7788V58.7551H83.1007V55.8594Z" stroke="#1C79F6" stroke-miterlimit="10" stroke-linecap="round"/>
<path d="M27.7052 77.5889H25.3833V80.4846H27.7052V77.5889Z" stroke="#1C79F6" stroke-miterlimit="10" stroke-linecap="round"/>
<path d="M31.4767 77.5889H29.1548V80.4846H31.4767V77.5889Z" stroke="#1C79F6" stroke-miterlimit="10" stroke-linecap="round"/>
<path d="M35.2477 77.5889H32.9258V80.4846H35.2477V77.5889Z" stroke="#1C79F6" stroke-miterlimit="10" stroke-linecap="round"/>
<path d="M39.0187 77.5889H36.6968V80.4846H39.0187V77.5889Z" stroke="#1C79F6" stroke-miterlimit="10" stroke-linecap="round"/>
<path d="M42.7863 77.5889H40.4644V80.4846H42.7863V77.5889Z" stroke="#1C79F6" stroke-miterlimit="10" stroke-linecap="round"/>
<path d="M46.5573 77.5889H44.2354V80.4846H46.5573V77.5889Z" stroke="#1C79F6" stroke-miterlimit="10" stroke-linecap="round"/>
<path d="M27.7052 83.6719H25.3833V86.5676H27.7052V83.6719Z" stroke="#1C79F6" stroke-miterlimit="10" stroke-linecap="round"/>
<path d="M31.4767 83.6719H29.1548V86.5676H31.4767V83.6719Z" stroke="#1C79F6" stroke-miterlimit="10" stroke-linecap="round"/>
<path d="M35.2477 83.6719H32.9258V86.5676H35.2477V83.6719Z" stroke="#1C79F6" stroke-miterlimit="10" stroke-linecap="round"/>
<path d="M39.0187 83.6719H36.6968V86.5676H39.0187V83.6719Z" stroke="#1C79F6" stroke-miterlimit="10" stroke-linecap="round"/>
<path d="M42.7863 83.6719H40.4644V86.5676H42.7863V83.6719Z" stroke="#1C79F6" stroke-miterlimit="10" stroke-linecap="round"/>
<path d="M46.5573 83.6719H44.2354V86.5676H46.5573V83.6719Z" stroke="#1C79F6" stroke-miterlimit="10" stroke-linecap="round"/>
<path d="M27.7052 89.7593H25.3833V92.655H27.7052V89.7593Z" stroke="#1C79F6" stroke-miterlimit="10" stroke-linecap="round"/>
<path d="M31.4767 89.7593H29.1548V92.655H31.4767V89.7593Z" stroke="#1C79F6" stroke-miterlimit="10" stroke-linecap="round"/>
<path d="M35.2477 89.7593H32.9258V92.655H35.2477V89.7593Z" stroke="#1C79F6" stroke-miterlimit="10" stroke-linecap="round"/>
<path d="M39.0187 89.7593H36.6968V92.655H39.0187V89.7593Z" stroke="#1C79F6" stroke-miterlimit="10" stroke-linecap="round"/>
<path d="M42.7863 89.7593H40.4644V92.655H42.7863V89.7593Z" stroke="#1C79F6" stroke-miterlimit="10" stroke-linecap="round"/>
<path d="M46.5573 89.7593H44.2354V92.655H46.5573V89.7593Z" stroke="#1C79F6" stroke-miterlimit="10" stroke-linecap="round"/>
<path d="M27.7052 95.8423H25.3833V98.738H27.7052V95.8423Z" stroke="#1C79F6" stroke-miterlimit="10" stroke-linecap="round"/>
<path d="M31.4767 95.8423H29.1548V98.738H31.4767V95.8423Z" stroke="#1C79F6" stroke-miterlimit="10" stroke-linecap="round"/>
<path d="M35.2477 95.8423H32.9258V98.738H35.2477V95.8423Z" stroke="#1C79F6" stroke-miterlimit="10" stroke-linecap="round"/>
<path d="M39.0187 95.8423H36.6968V98.738H39.0187V95.8423Z" stroke="#1C79F6" stroke-miterlimit="10" stroke-linecap="round"/>
<path d="M42.7863 95.8423H40.4644V98.738H42.7863V95.8423Z" stroke="#1C79F6" stroke-miterlimit="10" stroke-linecap="round"/>
<path d="M46.5573 95.8423H44.2354V98.738H46.5573V95.8423Z" stroke="#1C79F6" stroke-miterlimit="10" stroke-linecap="round"/>
<path d="M247.249 28.623H244.927V31.5188H247.249V28.623Z" stroke="#1C79F6" stroke-miterlimit="10" stroke-linecap="round"/>
<path d="M251.02 28.623H248.698V31.5188H251.02V28.623Z" stroke="#1C79F6" stroke-miterlimit="10" stroke-linecap="round"/>
<path d="M254.791 28.623H252.469V31.5188H254.791V28.623Z" stroke="#1C79F6" stroke-miterlimit="10" stroke-linecap="round"/>
<path d="M247.249 35.8657H244.927V38.7614H247.249V35.8657Z" stroke="#1C79F6" stroke-miterlimit="10" stroke-linecap="round"/>
<path d="M251.02 35.8657H248.698V38.7614H251.02V35.8657Z" stroke="#1C79F6" stroke-miterlimit="10" stroke-linecap="round"/>
<path d="M254.791 35.8657H252.469V38.7614H254.791V35.8657Z" stroke="#1C79F6" stroke-miterlimit="10" stroke-linecap="round"/>
<path d="M247.249 43.1089H244.927V46.0046H247.249V43.1089Z" stroke="#1C79F6" stroke-miterlimit="10" stroke-linecap="round"/>
<path d="M251.02 43.1089H248.698V46.0046H251.02V43.1089Z" stroke="#1C79F6" stroke-miterlimit="10" stroke-linecap="round"/>
<path d="M254.791 43.1089H252.469V46.0046H254.791V43.1089Z" stroke="#1C79F6" stroke-miterlimit="10" stroke-linecap="round"/>
<path d="M247.249 50.356H244.927V53.2517H247.249V50.356Z" stroke="#1C79F6" stroke-miterlimit="10" stroke-linecap="round"/>
<path d="M251.02 50.356H248.698V53.2517H251.02V50.356Z" stroke="#1C79F6" stroke-miterlimit="10" stroke-linecap="round"/>
<path d="M254.791 50.356H252.469V53.2517H254.791V50.356Z" stroke="#1C79F6" stroke-miterlimit="10" stroke-linecap="round"/>
<path d="M247.249 57.5991H244.927V60.4948H247.249V57.5991Z" stroke="#1C79F6" stroke-miterlimit="10" stroke-linecap="round"/>
<path d="M251.02 57.5991H248.698V60.4948H251.02V57.5991Z" stroke="#1C79F6" stroke-miterlimit="10" stroke-linecap="round"/>
<path d="M254.791 57.5991H252.469V60.4948H254.791V57.5991Z" stroke="#1C79F6" stroke-miterlimit="10" stroke-linecap="round"/>
<path d="M247.249 64.8423H244.927V67.738H247.249V64.8423Z" stroke="#1C79F6" stroke-miterlimit="10" stroke-linecap="round"/>
<path d="M251.02 64.8423H248.698V67.738H251.02V64.8423Z" stroke="#1C79F6" stroke-miterlimit="10" stroke-linecap="round"/>
<path d="M254.791 64.8423H252.469V67.738H254.791V64.8423Z" stroke="#1C79F6" stroke-miterlimit="10" stroke-linecap="round"/>
<path d="M247.249 72.0854H244.927V74.9812H247.249V72.0854Z" stroke="#1C79F6" stroke-miterlimit="10" stroke-linecap="round"/>
<path d="M251.02 72.0854H248.698V74.9812H251.02V72.0854Z" stroke="#1C79F6" stroke-miterlimit="10" stroke-linecap="round"/>
<path d="M254.791 72.0854H252.469V74.9812H254.791V72.0854Z" stroke="#1C79F6" stroke-miterlimit="10" stroke-linecap="round"/>
<path d="M247.249 79.3286H244.927V82.2243H247.249V79.3286Z" stroke="#1C79F6" stroke-miterlimit="10" stroke-linecap="round"/>
<path d="M251.02 79.3286H248.698V82.2243H251.02V79.3286Z" stroke="#1C79F6" stroke-miterlimit="10" stroke-linecap="round"/>
<path d="M254.791 79.3286H252.469V82.2243H254.791V79.3286Z" stroke="#1C79F6" stroke-miterlimit="10" stroke-linecap="round"/>
<path d="M247.249 86.5713H244.927V89.467H247.249V86.5713Z" stroke="#1C79F6" stroke-miterlimit="10" stroke-linecap="round"/>
<path d="M251.02 86.5713H248.698V89.467H251.02V86.5713Z" stroke="#1C79F6" stroke-miterlimit="10" stroke-linecap="round"/>
<path d="M222.565 43.1089H220.243V46.0046H222.565V43.1089Z" stroke="#1C79F6" stroke-miterlimit="10" stroke-linecap="round"/>
<path d="M226.337 43.1089H224.015V46.0046H226.337V43.1089Z" stroke="#1C79F6" stroke-miterlimit="10" stroke-linecap="round"/>
<path d="M222.565 50.356H220.243V53.2517H222.565V50.356Z" stroke="#1C79F6" stroke-miterlimit="10" stroke-linecap="round"/>
<path d="M226.337 50.356H224.015V53.2517H226.337V50.356Z" stroke="#1C79F6" stroke-miterlimit="10" stroke-linecap="round"/>
<path d="M222.565 57.5991H220.243V60.4948H222.565V57.5991Z" stroke="#1C79F6" stroke-miterlimit="10" stroke-linecap="round"/>
<path d="M226.337 57.5991H224.015V60.4948H226.337V57.5991Z" stroke="#1C79F6" stroke-miterlimit="10" stroke-linecap="round"/>
<path d="M222.565 64.8423H220.243V67.738H222.565V64.8423Z" stroke="#1C79F6" stroke-miterlimit="10" stroke-linecap="round"/>
<path d="M226.337 64.8423H224.015V67.738H226.337V64.8423Z" stroke="#1C79F6" stroke-miterlimit="10" stroke-linecap="round"/>
<path d="M222.565 72.0854H220.243V74.9812H222.565V72.0854Z" stroke="#1C79F6" stroke-miterlimit="10" stroke-linecap="round"/>
<path d="M226.337 72.0854H224.015V74.9812H226.337V72.0854Z" stroke="#1C79F6" stroke-miterlimit="10" stroke-linecap="round"/>
<path d="M222.565 79.3286H220.243V82.2243H222.565V79.3286Z" stroke="#1C79F6" stroke-miterlimit="10" stroke-linecap="round"/>
<path d="M226.337 79.3286H224.015V82.2243H226.337V79.3286Z" stroke="#1C79F6" stroke-miterlimit="10" stroke-linecap="round"/>
<path d="M222.565 86.5713H220.243V89.467H222.565V86.5713Z" stroke="#1C79F6" stroke-miterlimit="10" stroke-linecap="round"/>
<path d="M226.337 86.5713H224.015V89.467H226.337V86.5713Z" stroke="#1C79F6" stroke-miterlimit="10" stroke-linecap="round"/>
<path d="M156.118 50.356H153.796V53.2517H156.118V50.356Z" stroke="#1C79F6" stroke-miterlimit="10" stroke-linecap="round"/>
<path d="M159.889 50.356H157.567V53.2517H159.889V50.356Z" stroke="#1C79F6" stroke-miterlimit="10" stroke-linecap="round"/>
<path d="M156.118 57.5991H153.796V60.4948H156.118V57.5991Z" stroke="#1C79F6" stroke-miterlimit="10" stroke-linecap="round"/>
<path d="M159.889 57.5991H157.567V60.4948H159.889V57.5991Z" stroke="#1C79F6" stroke-miterlimit="10" stroke-linecap="round"/>
<path d="M156.118 64.8423H153.796V67.738H156.118V64.8423Z" stroke="#1C79F6" stroke-miterlimit="10" stroke-linecap="round"/>
<path d="M159.889 64.8423H157.567V67.738H159.889V64.8423Z" stroke="#1C79F6" stroke-miterlimit="10" stroke-linecap="round"/>
<path d="M156.118 72.0854H153.796V74.9812H156.118V72.0854Z" stroke="#1C79F6" stroke-miterlimit="10" stroke-linecap="round"/>
<path d="M159.889 72.0854H157.567V74.9812H159.889V72.0854Z" stroke="#1C79F6" stroke-miterlimit="10" stroke-linecap="round"/>
<path d="M156.118 79.3286H153.796V82.2243H156.118V79.3286Z" stroke="#1C79F6" stroke-miterlimit="10" stroke-linecap="round"/>
<path d="M159.889 79.3286H157.567V82.2243H159.889V79.3286Z" stroke="#1C79F6" stroke-miterlimit="10" stroke-linecap="round"/>
<path d="M156.118 86.5713H153.796V89.467H156.118V86.5713Z" stroke="#1C79F6" stroke-miterlimit="10" stroke-linecap="round"/>
<path d="M159.889 86.5713H157.567V89.467H159.889V86.5713Z" stroke="#1C79F6" stroke-miterlimit="10" stroke-linecap="round"/>
<path d="M164.656 50.356H162.334V53.2517H164.656V50.356Z" stroke="#1C79F6" stroke-miterlimit="10" stroke-linecap="round"/>
<path d="M168.427 50.356H166.105V53.2517H168.427V50.356Z" stroke="#1C79F6" stroke-miterlimit="10" stroke-linecap="round"/>
<path d="M164.656 57.5991H162.334V60.4948H164.656V57.5991Z" stroke="#1C79F6" stroke-miterlimit="10" stroke-linecap="round"/>
<path d="M168.427 57.5991H166.105V60.4948H168.427V57.5991Z" stroke="#1C79F6" stroke-miterlimit="10" stroke-linecap="round"/>
<path d="M164.656 64.8423H162.334V67.738H164.656V64.8423Z" stroke="#1C79F6" stroke-miterlimit="10" stroke-linecap="round"/>
<path d="M168.427 64.8423H166.105V67.738H168.427V64.8423Z" stroke="#1C79F6" stroke-miterlimit="10" stroke-linecap="round"/>
<path d="M164.656 72.0854H162.334V74.9812H164.656V72.0854Z" stroke="#1C79F6" stroke-miterlimit="10" stroke-linecap="round"/>
<path d="M168.427 72.0854H166.105V74.9812H168.427V72.0854Z" stroke="#1C79F6" stroke-miterlimit="10" stroke-linecap="round"/>
<path d="M164.656 79.3286H162.334V82.2243H164.656V79.3286Z" stroke="#1C79F6" stroke-miterlimit="10" stroke-linecap="round"/>
<path d="M168.427 79.3286H166.105V82.2243H168.427V79.3286Z" stroke="#1C79F6" stroke-miterlimit="10" stroke-linecap="round"/>
<path d="M164.656 86.5713H162.334V89.467H164.656V86.5713Z" stroke="#1C79F6" stroke-miterlimit="10" stroke-linecap="round"/>
<path d="M168.427 86.5713H166.105V89.467H168.427V86.5713Z" stroke="#1C79F6" stroke-miterlimit="10" stroke-linecap="round"/>
<path d="M105.393 28.623H103.071V31.5188H105.393V28.623Z" stroke="#1C79F6" stroke-miterlimit="10" stroke-linecap="round"/>
<path d="M109.161 28.623H106.839V31.5188H109.161V28.623Z" stroke="#1C79F6" stroke-miterlimit="10" stroke-linecap="round"/>
<path d="M105.393 35.8657H103.071V38.7614H105.393V35.8657Z" stroke="#1C79F6" stroke-miterlimit="10" stroke-linecap="round"/>
<path d="M109.161 35.8657H106.839V38.7614H109.161V35.8657Z" stroke="#1C79F6" stroke-miterlimit="10" stroke-linecap="round"/>
<path d="M105.393 43.1089H103.071V46.0046H105.393V43.1089Z" stroke="#1C79F6" stroke-miterlimit="10" stroke-linecap="round"/>
<path d="M109.161 43.1089H106.839V46.0046H109.161V43.1089Z" stroke="#1C79F6" stroke-miterlimit="10" stroke-linecap="round"/>
<path d="M105.393 50.356H103.071V53.2517H105.393V50.356Z" stroke="#1C79F6" stroke-miterlimit="10" stroke-linecap="round"/>
<path d="M109.161 50.356H106.839V53.2517H109.161V50.356Z" stroke="#1C79F6" stroke-miterlimit="10" stroke-linecap="round"/>
<path d="M105.393 57.5991H103.071V60.4948H105.393V57.5991Z" stroke="#1C79F6" stroke-miterlimit="10" stroke-linecap="round"/>
<path d="M109.161 57.5991H106.839V60.4948H109.161V57.5991Z" stroke="#1C79F6" stroke-miterlimit="10" stroke-linecap="round"/>
<path d="M105.393 64.8423H103.071V67.738H105.393V64.8423Z" stroke="#1C79F6" stroke-miterlimit="10" stroke-linecap="round"/>
<path d="M109.161 64.8423H106.839V67.738H109.161V64.8423Z" stroke="#1C79F6" stroke-miterlimit="10" stroke-linecap="round"/>
<path d="M105.393 72.0854H103.071V74.9812H105.393V72.0854Z" stroke="#1C79F6" stroke-miterlimit="10" stroke-linecap="round"/>
<path d="M109.161 72.0854H106.839V74.9812H109.161V72.0854Z" stroke="#1C79F6" stroke-miterlimit="10" stroke-linecap="round"/>
<path d="M105.393 79.3286H103.071V82.2243H105.393V79.3286Z" stroke="#1C79F6" stroke-miterlimit="10" stroke-linecap="round"/>
<path d="M109.161 79.3286H106.839V82.2243H109.161V79.3286Z" stroke="#1C79F6" stroke-miterlimit="10" stroke-linecap="round"/>
<path d="M105.393 86.5713H103.071V89.467H105.393V86.5713Z" stroke="#1C79F6" stroke-miterlimit="10" stroke-linecap="round"/>
<path d="M109.161 86.5713H106.839V89.467H109.161V86.5713Z" stroke="#1C79F6" stroke-miterlimit="10" stroke-linecap="round"/>
<path d="M254.791 86.5713H252.469V89.467H254.791V86.5713Z" stroke="#1C79F6" stroke-miterlimit="10" stroke-linecap="round"/>
<path d="M171.875 103.074L160.35 109.837L171.741 116.819L158.69 119.696L167.366 129.854L154.061 128.559L159.17 140.899L146.919 135.56L147.96 148.875L137.962 140.015L134.832 153L128.063 141.486L121.07 152.869L118.195 139.827L108.023 148.495L109.322 135.203L96.9706 140.311L102.314 128.068L88.9861 129.108L97.8547 119.119L84.8574 115.993L96.3824 109.23L84.9881 102.248L98.0431 99.3718L89.3667 89.2138L102.672 90.5081L97.5587 78.1687L109.814 83.5069L108.769 70.192L118.771 79.052L121.9 66.0674L128.67 77.5811L135.659 66.198L138.538 79.2402L148.706 70.5722L147.411 83.8641L159.762 78.7601L154.419 90.9996L167.747 89.9589L158.878 99.9479L171.875 103.074Z" fill="#92E3A9"/>
<path opacity="0.5" d="M161.946 104.549L153.05 109.768L161.846 115.156L151.77 117.376L158.467 125.218L148.199 124.22L152.143 133.744L142.686 129.623L143.49 139.896L135.77 133.06L133.356 143.08L128.132 134.193L122.735 142.98L120.517 132.914L112.667 139.604L113.666 129.347L104.132 133.287L108.257 123.839L97.974 124.642L104.817 116.93L94.7871 114.519L103.683 109.299L94.8871 103.911L104.963 101.691L98.2661 93.8493L108.534 94.8478L104.59 85.3273L114.047 89.4443L113.243 79.171L120.962 86.0071L123.373 75.9873L128.601 84.8741L133.994 76.0872L136.216 86.153L144.066 79.4629L143.063 89.7208L152.597 85.7805L148.476 95.228L158.759 94.4253L151.916 102.137L161.946 104.549Z" fill="white"/>
<path d="M133.221 88.0117L131.545 90.8997L134.74 92.8737L137.785 90.2891L133.221 88.0117Z" fill="white" stroke="#1C79F6" stroke-linecap="round" stroke-linejoin="round"/>
<path d="M126.225 91.9634L125.006 93.634L126.375 94.3944L127.44 93.3306L126.225 91.9634Z" fill="white" stroke="#1C79F6" stroke-linecap="round" stroke-linejoin="round"/>
<path d="M134.287 82.0859L128.659 83L128.962 84.974L134.74 83.7565L134.287 82.0859Z" fill="white" stroke="#1C79F6" stroke-linecap="round" stroke-linejoin="round"/>
<path d="M149.948 91.0494L145.996 88.772L145.539 89.9856L151.013 93.4804L149.948 91.0494Z" fill="white" stroke="#1C79F6" stroke-linecap="round" stroke-linejoin="round"/>
<path d="M121.204 84.0598L118.164 86.7942L120.901 88.6184L123.792 83.3032L121.204 84.0598Z" fill="white" stroke="#1C79F6" stroke-linecap="round" stroke-linejoin="round"/>
<path d="M104.628 89.8359L103.414 91.3529L105.693 92.5703L106.301 91.0495L104.628 89.8359Z" fill="#1C79F6" stroke="#1C79F6" stroke-linecap="round" stroke-linejoin="round"/>
<path d="M159.074 90.1392L157.859 91.6561L160.139 92.8736L160.746 91.3527L159.074 90.1392Z" fill="#1C79F6" stroke="#1C79F6" stroke-linecap="round" stroke-linejoin="round"/>
<path d="M103.106 93.0273L101.891 94.5443L104.171 95.7618L104.782 94.2409L103.106 93.0273Z" fill="#1C79F6" stroke="#1C79F6" stroke-linecap="round" stroke-linejoin="round"/>
<path d="M98.5469 88.3149L99.0005 90.4426L100.826 90.2889L98.5469 88.3149Z" fill="#1C79F6" stroke="#1C79F6" stroke-linecap="round" stroke-linejoin="round"/>
<path d="M159.132 96.4264L161.269 96.0077L161.146 94.1797L159.132 96.4264Z" fill="#1C79F6" stroke="#1C79F6" stroke-linecap="round" stroke-linejoin="round"/>
<path d="M151.47 89.986L153.608 89.5674L153.485 87.7432L151.47 89.986Z" fill="#1C79F6" stroke="#1C79F6" stroke-linecap="round" stroke-linejoin="round"/>
<path d="M110.103 82.8462L110.56 84.9738L112.386 84.8202L110.103 82.8462Z" fill="#1C79F6" stroke="#1C79F6" stroke-linecap="round" stroke-linejoin="round"/>
<path d="M155.576 96.9756L156.033 99.1032L157.859 98.9496L155.576 96.9756Z" fill="#1C79F6" stroke="#1C79F6" stroke-linecap="round" stroke-linejoin="round"/>
<path d="M96.4169 87.7085L94.7446 88.7723C94.7446 88.7723 96.7206 89.9859 97.0243 89.5404C97.3279 89.0949 96.4169 87.7085 96.4169 87.7085Z" fill="#1C79F6" stroke="#1C79F6" stroke-linecap="round" stroke-linejoin="round"/>
<path d="M104.628 78.7295L103.717 79.9431L105.382 80.5307L105.847 79.0329L104.628 78.7295Z" fill="#1C79F6" stroke="#1C79F6" stroke-linecap="round" stroke-linejoin="round"/>
<path d="M123.757 127.335L128.359 130.395L127.133 133.23L133.549 134.873L139.611 130.753L130.169 126.574L123.757 127.335Z" fill="#1C79F6" stroke="#1C79F6" stroke-linecap="round" stroke-linejoin="round"/>
<path d="M10.418 120.737L75.5353 125.199C76.0582 125.236 76.5836 125.209 77.0999 125.119L87.9099 123.198C88.8557 123.032 89.7525 122.656 90.5349 122.1C91.3173 121.544 91.9657 120.82 92.433 119.982C92.9002 119.143 93.1746 118.211 93.236 117.254C93.2975 116.296 93.1445 115.337 92.7882 114.446L92.4345 113.567C91.9811 112.441 91.2196 111.466 90.2372 110.753C89.2547 110.04 88.0911 109.617 86.8796 109.534L13.3165 104.488C10.887 104.319 10.7986 105.682 9.54919 107.771L7.53866 111.136C6.80301 112.364 6.49671 113.801 6.66789 115.222C6.83907 116.643 7.47803 117.967 8.48434 118.985C9.61069 120.107 8.84185 120.629 10.418 120.737Z" fill="#1C79F6" stroke="#1C79F6" stroke-linecap="round" stroke-linejoin="round"/>
<path d="M86.7488 112.338L82.8315 112.069L82.7777 112.837C80.8167 113.486 79.0935 114.704 77.8274 116.335C76.5612 117.966 75.8094 119.936 75.6676 121.995C75.5258 124.054 76.0005 126.108 77.0311 127.897C78.0618 129.686 79.6018 131.128 81.4553 132.039L81.4015 132.807L85.3226 133.076C86.7126 133.22 88.1175 133.083 89.4534 132.673C90.7893 132.263 92.029 131.589 93.0984 130.69C94.1678 129.791 95.0451 128.686 95.678 127.442C96.3109 126.197 96.6864 124.837 96.7822 123.445C96.878 122.052 96.6921 120.654 96.2355 119.334C95.779 118.015 95.0612 116.8 94.1248 115.764C93.1885 114.727 92.0529 113.89 90.7857 113.301C89.5184 112.713 88.1455 112.385 86.7488 112.338Z" fill="#1C79F6" stroke="#1C79F6" stroke-linecap="round" stroke-linejoin="round"/>
<path d="M82.1167 132.845C87.8661 132.845 92.5269 128.189 92.5269 122.445C92.5269 116.702 87.8661 112.045 82.1167 112.045C76.3673 112.045 71.7065 116.702 71.7065 122.445C71.7065 128.189 76.3673 132.845 82.1167 132.845Z" fill="#F5CD70" stroke="#1C79F6" stroke-linecap="round" stroke-linejoin="round"/>
<path d="M84.1183 129.743C88.1576 128.643 90.5394 124.48 89.4381 120.445C88.3369 116.409 84.1696 114.03 80.1303 115.13C76.0909 116.23 73.7091 120.393 74.8104 124.429C75.9116 128.464 80.0789 130.844 84.1183 129.743Z" fill="white" stroke="#1C79F6" stroke-linecap="round" stroke-linejoin="round"/>
<path d="M116.983 114.415L113.066 114.146C110.347 114.016 107.686 114.956 105.652 116.764C103.619 118.571 102.375 121.103 102.188 123.816C102.001 126.529 102.885 129.207 104.652 131.276C106.418 133.345 108.925 134.641 111.636 134.885L115.557 135.153C116.937 135.278 118.328 135.126 119.649 134.707C120.969 134.288 122.192 133.609 123.247 132.711C124.301 131.813 125.165 130.714 125.789 129.477C126.412 128.241 126.782 126.893 126.877 125.512C126.972 124.131 126.79 122.745 126.342 121.436C125.893 120.126 125.188 118.919 124.266 117.885C123.345 116.851 122.226 116.012 120.975 115.416C119.725 114.82 118.367 114.48 116.983 114.415Z" fill="#1C79F6" stroke="#1C79F6" stroke-linecap="round" stroke-linejoin="round"/>
<path d="M21.0086 107.825L15.7612 107.468L15.4575 111.884C13.6407 115.606 13.3456 119.889 14.6348 123.824L14.3311 128.245L19.5747 128.606C23.1152 128.848 26.3021 124.381 26.698 118.655C27.094 112.929 24.5453 108.071 21.0086 107.825Z" fill="#1C79F6" stroke="#1C79F6" stroke-linecap="round" stroke-linejoin="round"/>
<path d="M21.774 118.441C22.177 112.688 19.6278 107.824 16.08 107.576C12.5323 107.328 9.32962 111.79 8.92656 117.542C8.52351 123.294 11.0728 128.159 14.6205 128.407C18.1682 128.655 21.3709 124.193 21.774 118.441Z" fill="#F5CD70" stroke="#1C79F6" stroke-width="1.00245" stroke-linecap="round" stroke-linejoin="round"/>
<path d="M19.6054 118.167C19.3247 122.23 17.0643 125.387 14.5579 125.214C12.0515 125.042 10.2447 121.608 10.5253 117.534C10.8059 113.459 13.0625 110.313 15.5728 110.486C18.0831 110.659 19.8668 114.104 19.6054 118.167Z" fill="white" stroke="#1C79F6" stroke-linecap="round" stroke-linejoin="round"/>
<path d="M107.961 103.923L96.1787 92.8358C92.9781 89.8276 88.834 88.0188 84.45 87.7165L51.3896 85.4468L71.8755 101.446L107.961 103.923Z" fill="white" stroke="#1C79F6" stroke-linecap="round" stroke-linejoin="round"/>
<path d="M97.0935 94.1952C93.8933 91.1859 89.7492 89.3757 85.3648 89.072L58.1592 87.2056C60.8681 88.4776 63.2387 90.3696 65.0788 92.7281L71.8677 101.446L107.392 103.885L97.0935 94.1952Z" fill="#1C79F6" stroke="#1C79F6" stroke-linecap="round" stroke-linejoin="round"/>
<path d="M71.8641 101.446L70.9761 101.392L72.779 102.805L77.3383 103.116L71.8641 101.446Z" fill="white" stroke="#1C79F6" stroke-linecap="round" stroke-linejoin="round"/>
<path d="M77.4997 99.5142L70.9761 101.392L79.0067 106.22L105.332 115.521L140.045 122.365L137.504 116.047L77.4997 99.5142Z" fill="#1C79F6" stroke="#1C79F6" stroke-linecap="round" stroke-linejoin="round"/>
<path d="M140.076 129.746L100.757 127.046L100.376 121.823L97.2012 109.906L109.48 109.83L127.655 116.865L138.711 118.544L141.31 124.619L140.076 129.746Z" fill="#EAEAEA" stroke="#1C79F6" stroke-linecap="round" stroke-linejoin="round"/>
<path d="M103.26 120.652L104.306 124.581C104.414 124.987 104.647 125.349 104.971 125.616C105.296 125.884 105.697 126.043 106.116 126.071L125.145 127.377L138.392 131.839C138.698 131.856 138.997 131.751 139.225 131.547C139.453 131.343 139.59 131.057 139.607 130.752L139.457 128.748C139.484 128.137 138.788 126.205 138.173 126.163L126.691 120.975L124.169 120.783L104.267 119.415C104.112 119.407 103.957 119.436 103.815 119.499C103.673 119.562 103.547 119.658 103.449 119.778C103.351 119.899 103.283 120.041 103.25 120.192C103.217 120.344 103.22 120.502 103.26 120.652Z" fill="#1C79F6" stroke="#1C79F6" stroke-linecap="round" stroke-linejoin="round"/>
<path d="M139.042 119.439L137.812 119.085L131.884 118.398L133.029 119.028L139.042 119.439Z" fill="white" stroke="#1C79F6" stroke-linecap="round" stroke-linejoin="round"/>
<path d="M111.629 117.557L109.91 111.101L100.458 111.55L101.818 116.885L111.629 117.557Z" fill="white" stroke="#1C79F6" stroke-linecap="round" stroke-linejoin="round"/>
<path d="M130.565 118.859L129.42 118.229L113.808 114.319L114.093 117.726L130.565 118.859Z" fill="#1C79F6" stroke="#1C79F6" stroke-linecap="round" stroke-linejoin="round"/>
<path d="M12.9053 97.9742L24.8224 88.565C28.526 85.6437 33.1846 84.2023 37.8927 84.521L51.3475 85.4466C54.016 85.6315 56.6154 86.377 58.9757 87.6344C61.336 88.8918 63.404 90.6328 65.0445 92.7435L71.8334 101.461L12.9053 97.9742Z" fill="white" stroke="#1C79F6" stroke-linecap="round" stroke-linejoin="round"/>
<path d="M19.1406 98.4041L29.3624 89.7554C32.4605 87.0927 36.4781 85.7461 40.5568 86.0032L52.0587 86.7944C54.3694 86.9697 56.6129 87.6518 58.6296 88.7922C60.6462 89.9326 62.3863 91.5033 63.7259 93.3923L69.4923 101.334L19.1406 98.4041Z" fill="#1C79F6" stroke="#1C79F6" stroke-linecap="round" stroke-linejoin="round"/>
<path d="M45.6386 86.353C42.9325 90.3224 41.2272 94.8865 40.668 99.6564L44.393 99.8714C44.7774 96.3459 45.9961 90.0552 49.7749 86.6372L45.6386 86.353Z" fill="#F5CD70" stroke="#1C79F6" stroke-linecap="round" stroke-linejoin="round"/>
<path d="M32.2261 87.816C30.324 91.2616 29.1122 95.0445 28.6587 98.9533L29.5006 99.0032C29.885 95.7849 30.8422 90.7424 33.3871 87.2476C32.995 87.4204 32.6067 87.6124 32.2261 87.816Z" fill="#F5CD70" stroke="#1C79F6" stroke-linecap="round" stroke-linejoin="round"/>
<path d="M63.6758 100.997L69.4921 101.335L64.9328 95.0518L63.6758 100.997Z" fill="#F5CD70" stroke="#1C79F6" stroke-linecap="round" stroke-linejoin="round"/>
<path d="M63.937 97.187L66.8394 100.106L66.7664 101.177L62.5146 100.885L63.937 97.187Z" fill="#1C79F6" stroke="#1C79F6" stroke-linecap="round" stroke-linejoin="round"/>
<path d="M62.7182 95.9412L57.3758 95.5746C56.6578 95.5253 56.0357 96.0669 55.9864 96.7842L55.8235 99.152C55.7742 99.8694 56.3163 100.491 57.0343 100.54L62.3768 100.907C63.0948 100.956 63.7169 100.414 63.7662 99.6972L63.929 97.3293C63.9784 96.612 63.4363 95.9905 62.7182 95.9412Z" fill="white" stroke="#1C79F6" stroke-linecap="round" stroke-linejoin="round"/>
<path d="M70.2802 119.204C70.4801 116.297 71.5718 109.638 80.5058 110.252C87.2678 110.713 88.6978 120.472 88.6978 120.472C88.6978 120.472 88.9324 124.696 89.9934 126.459L90.6161 127.504L92.1538 127.611L100.765 127.047L100.38 121.824L97.2051 109.918L71.8678 101.469L12.9089 98.0127L8.19977 99.3338C7.38773 99.4703 6.5926 99.6931 5.82788 99.9982C4.37092 100.582 2.56798 101.511 2.41421 102.375L0.215316 114.665C-0.119132 116.524 4.41321 118.613 6.14311 119.373L7.98065 120.602C7.44239 119.07 7.1985 117.451 7.26178 115.829C7.52319 112.046 9.42223 105.402 15.7191 105.843C18.9598 106.066 20.9126 106.861 22.0928 108.082L22.1851 108.194C22.5833 108.633 22.9055 109.135 23.1384 109.68C24.0946 111.48 24.6814 113.453 24.8645 115.483C25.3258 120.234 26.8712 122.569 28.405 123.198L28.6434 123.302L72.2715 126.248C70.9491 124.047 70.1187 121.566 70.2802 119.204Z" fill="white" stroke="#1C79F6" stroke-linecap="round" stroke-linejoin="round"/>
<path d="M39.6919 118.286C40.134 119.308 40.4607 119.972 40.4607 119.972L39.6919 118.286Z" fill="white"/>
<path d="M39.6919 118.286C40.134 119.308 40.4607 119.972 40.4607 119.972" stroke="#1C79F6" stroke-linecap="round" stroke-linejoin="round"/>
<path d="M40.4797 101.435C40.4797 101.435 37.8618 107.533 37.8618 111.243C37.8618 112.91 38.3923 114.842 38.9766 116.466" fill="white"/>
<path d="M40.4797 101.435C40.4797 101.435 37.8618 107.533 37.8618 111.243C37.8618 112.91 38.3923 114.842 38.9766 116.466" stroke="#1C79F6" stroke-linecap="round" stroke-linejoin="round"/>
<path d="M101.818 116.885L105.351 117.127L103.979 111.385L100.458 111.55L101.818 116.885Z" fill="#F5BE41" stroke="#1C79F6" stroke-linecap="round" stroke-linejoin="round"/>
<path d="M137.173 119.312L139.042 119.438L137.811 119.085L135.901 118.862L137.173 119.312Z" fill="white" stroke="#1C79F6" stroke-linecap="round" stroke-linejoin="round"/>
<path d="M26.9557 103.838L24.4646 103.666C24.3521 103.658 24.2422 103.629 24.1411 103.579C24.0401 103.529 23.95 103.459 23.876 103.374C23.802 103.289 23.7456 103.191 23.71 103.084C23.6745 102.977 23.6605 102.864 23.6689 102.752C23.6761 102.637 23.7062 102.526 23.7574 102.424C23.8087 102.321 23.88 102.23 23.9672 102.156C24.0543 102.082 24.1555 102.026 24.2648 101.992C24.374 101.958 24.489 101.946 24.603 101.957L27.0941 102.126C27.2064 102.133 27.3161 102.163 27.4169 102.213C27.5177 102.264 27.6076 102.333 27.6815 102.418C27.7554 102.503 27.8118 102.601 27.8475 102.708C27.8833 102.815 27.8977 102.927 27.8898 103.04C27.8821 103.154 27.8516 103.265 27.8003 103.367C27.7489 103.47 27.6776 103.561 27.5906 103.635C27.5037 103.709 27.4027 103.766 27.2937 103.801C27.1846 103.836 27.0697 103.848 26.9557 103.838Z" fill="white" stroke="#1C79F6" stroke-linecap="round" stroke-linejoin="round"/>
<path d="M46.8075 105.198L44.3164 105.029C44.2041 105.021 44.0944 104.991 43.9936 104.941C43.8928 104.891 43.8029 104.822 43.729 104.737C43.6551 104.652 43.5987 104.553 43.5629 104.447C43.5272 104.34 43.5128 104.227 43.5206 104.115C43.5364 103.888 43.6416 103.677 43.813 103.527C43.9845 103.377 44.2083 103.302 44.4356 103.316L46.9266 103.489C47.0391 103.496 47.1491 103.526 47.2501 103.576C47.3511 103.626 47.4413 103.695 47.5152 103.78C47.5892 103.865 47.6456 103.964 47.6812 104.071C47.7167 104.178 47.7307 104.291 47.7224 104.403C47.7151 104.516 47.6855 104.625 47.6355 104.726C47.5855 104.827 47.5159 104.917 47.4308 104.991C47.3457 105.065 47.2469 105.121 47.1399 105.157C47.0329 105.192 46.9199 105.206 46.8075 105.198Z" fill="white" stroke="#1C79F6" stroke-linecap="round" stroke-linejoin="round"/>
<path d="M67.7969 122.211C67.9072 122.886 68.0902 123.546 68.3428 124.182" stroke="#1C79F6" stroke-linecap="round" stroke-linejoin="round"/>
<path d="M70.9106 102.79C69.8747 103.705 69.137 104.909 68.7924 106.246C68.285 108.113 67.0702 115.786 67.6391 121.025" stroke="#1C79F6" stroke-linecap="round" stroke-linejoin="round"/>
<path d="M75.3467 109.346C77.1919 108.124 80.0789 106.941 83.5272 108.032C88.5823 109.63 88.9322 115.905 88.9591 117.783" stroke="#1C79F6" stroke-linecap="round" stroke-linejoin="round"/>
<path d="M73.144 111.227C73.5184 110.81 73.9274 110.424 74.3665 110.075" stroke="#1C79F6" stroke-linecap="round" stroke-linejoin="round"/>
<path d="M2.41043 102.337L1.58008 106.968L3.5291 107.103L3.84433 102.375L2.41427 102.275C2.42196 102.298 2.41427 102.318 2.41043 102.337Z" fill="#92E3A9" stroke="#1C79F6" stroke-linecap="round" stroke-linejoin="round"/>
<path d="M96.2017 100.263L101.391 99.7943L106.746 95.4546L112.897 95.516C112.897 95.516 114.685 100.647 119.555 103.692C122.811 105.739 129.773 106.073 129.808 106.212C129.9 106.565 130.408 110.847 130.408 110.847C130.408 110.847 136.974 115.659 137.519 116.039C138.065 116.42 138.727 118.536 138.727 118.536L118.214 112.829L109.48 109.837L98.4122 109.691L83.1006 103.823L74.6895 101.465C74.6895 101.465 92.2883 98.55 96.2017 100.263Z" fill="white" stroke="#1C79F6" stroke-linecap="round" stroke-linejoin="round"/>
<path d="M98.4121 109.692L108.953 107.794L118.198 112.837" stroke="#1C79F6" stroke-linecap="round" stroke-linejoin="round"/>
<path d="M128.64 106.416L124.038 108.42L118.468 108.927L128.109 111.554" stroke="#1C79F6" stroke-linecap="round" stroke-linejoin="round"/>
<path d="M102.398 101.046L116.18 108.416" stroke="#1C79F6" stroke-linecap="round" stroke-linejoin="round"/>
<path d="M100.488 98.4429L95.3367 95.6893L93.4145 94.0072L91.3963 93.3543L89.7472 92.3827L87.8866 91.9142L85.457 92.2598C85.457 92.2598 86.6103 92.8551 83.4657 91.2651C80.3211 89.6752 78.2222 90.0477 78.2222 90.0477" stroke="white" stroke-linecap="round" stroke-linejoin="round"/>
<path d="M98.1624 97.2524L94.914 97.0296L92.7151 96.538L90.6738 96.2231L88.621 96.0849L85.4649 94.4949C83.9272 94.3874 80.083 95.3245 80.083 95.3245" stroke="white" stroke-linecap="round" stroke-linejoin="round"/>
<path d="M87.5252 95.6582L85.0303 95.9808L84.1462 97.3019L82.7815 98.4963L77.4995 99.514" stroke="white" stroke-linecap="round" stroke-linejoin="round"/>
<path d="M98.7004 98.6961L96.8975 98.9688L95.4329 98.6731L92.9649 98.6001L91.7578 98.915L89.555 99.2568L87.0947 99.0878" stroke="white" stroke-linecap="round" stroke-linejoin="round"/>
<path d="M96.9705 95.021L95.3482 95.6892L94.9138 97.0296L94.8062 97.74L95.4328 98.6733" stroke="white" stroke-linecap="round" stroke-linejoin="round"/>
<path d="M94.9718 93.8955L93.4033 94.0069L91.9425 91.9062L90.3164 91.1035" stroke="white" stroke-linecap="round" stroke-linejoin="round"/>
<path d="M92.7689 95.7197L92.7151 96.5377L92.127 97.8512L92.965 98.6001" stroke="white" stroke-linecap="round" stroke-linejoin="round"/>
<path d="M93.115 92.0869L89.8166 94.034L88.6211 96.0848L88.698 97.3176L89.3207 98.3507L90.1895 100.09" stroke="white" stroke-linecap="round" stroke-linejoin="round"/>
<path d="M133.029 119.027L141.31 124.619L139.042 119.438L133.029 119.027Z" fill="white" stroke="#1C79F6" stroke-linecap="round" stroke-linejoin="round"/>
<path d="M36.7241 127.042L51.6743 127.611" stroke="#1C79F6" stroke-linecap="round" stroke-linejoin="round"/>
<path d="M41.3906 129.892L56.337 130.46" stroke="#1C79F6" stroke-linecap="round" stroke-linejoin="round"/>
<path d="M243.67 109.404L240.422 109.638L240.379 109.711C240.098 109.69 239.815 109.69 239.534 109.711C235.57 109.999 232.66 114.362 233.029 119.458C233.398 124.554 236.916 128.448 240.879 128.16C241.16 128.138 241.439 128.095 241.713 128.03L241.767 128.095L245.015 127.861C248.979 127.573 251.893 123.206 251.52 118.114C251.147 113.021 247.637 109.112 243.67 109.404Z" fill="#1C79F6" stroke="#1C79F6" stroke-linecap="round" stroke-linejoin="round"/>
<path d="M177.084 114.246L173.832 114.484L173.79 114.557C173.51 114.534 173.228 114.534 172.948 114.557C168.981 114.83 166.071 119.2 166.455 124.296C166.839 129.393 170.338 133.287 174.305 132.999C174.586 132.977 174.865 132.933 175.139 132.868L175.189 132.934L178.441 132.699C182.405 132.411 185.315 128.045 184.946 122.952C184.577 117.86 181.063 113.958 177.084 114.246Z" fill="#1C79F6" stroke="#1C79F6" stroke-linecap="round" stroke-linejoin="round"/>
<path d="M274.628 107.422L273.067 107.537L270.957 97.8474C270.832 97.2774 270.505 96.7714 270.037 96.4223C269.569 96.0732 268.991 95.9042 268.408 95.9464L259.662 96.58L244.37 82.5701C243.551 81.8193 242.587 81.244 241.537 80.8794C240.487 80.5148 239.374 80.3687 238.265 80.4501L200.63 83.1884C199.816 83.2454 199.021 83.4667 198.294 83.839C197.567 84.2113 196.924 84.7268 196.402 85.3544L133.779 117.315L134.621 128.836L231.538 121.785L255.833 119.822L273.782 117.326V117.246L275.247 117.134C275.325 117.129 275.401 117.108 275.47 117.073C275.54 117.039 275.602 116.99 275.653 116.931C275.705 116.873 275.743 116.804 275.768 116.73C275.793 116.656 275.802 116.578 275.797 116.5L275.181 107.917C275.179 107.848 275.162 107.78 275.132 107.718C275.103 107.655 275.061 107.599 275.009 107.553C274.958 107.507 274.897 107.471 274.832 107.449C274.766 107.426 274.697 107.417 274.628 107.422Z" fill="#F5BE41" stroke="#1C79F6" stroke-linecap="round" stroke-linejoin="round"/>
<path d="M247.779 118.812L247.898 120.464L255.833 119.822L273.782 117.326V117.245L275.246 117.134C275.358 117.125 275.465 117.084 275.554 117.016C275.644 116.948 275.711 116.855 275.75 116.75L247.779 118.812Z" fill="#1C79F6" stroke="#1C79F6" stroke-linecap="round" stroke-linejoin="round"/>
<path d="M255.833 119.822C255.99 119.806 256.133 119.727 256.232 119.605C256.331 119.482 256.377 119.326 256.36 119.169C256.343 119.013 256.265 118.87 256.142 118.771C256.02 118.673 255.863 118.627 255.707 118.643L246.588 119.308L209.995 82.4893L200.63 83.1729C199.816 83.2299 199.021 83.4512 198.294 83.8235C197.567 84.1958 196.924 84.7113 196.402 85.3389L133.779 117.315L134.621 128.836L231.538 121.785L255.833 119.822Z" fill="#1C79F6" stroke="#1C79F6" stroke-linecap="round" stroke-linejoin="round"/>
<path d="M129.739 99.8562L121.082 97.1333L119.54 100.878L119.798 103.382L131.342 105.786L129.739 99.8562Z" fill="#1C79F6" stroke="#1C79F6" stroke-linecap="round" stroke-linejoin="round"/>
<path d="M165.974 106.423L155.714 100.017L152.504 93.2886L144.651 93.6112C144.651 93.6112 134.386 93.4499 133.118 94.0912C131.849 94.7326 127.667 100.977 127.667 100.977L123.657 104.664L129.108 107.387L134.721 109.63L135.201 114.914L140.653 115.394L147.868 113.151L151.712 109.948L165.974 106.423Z" fill="#F5BE41" stroke="#1C79F6" stroke-linecap="round" stroke-linejoin="round"/>
<path d="M134.067 95.854L140.322 106.427L138.077 111.711L138.108 113.643L140.322 114.112" stroke="#1C79F6" stroke-linecap="round" stroke-linejoin="round"/>
<path d="M148.871 116.301L145.623 116.539L143.701 119.819C142.662 121.723 142.193 123.885 142.351 126.048C142.509 128.211 143.288 130.283 144.593 132.016L146.953 134.988L150.201 134.75C154.165 134.462 157.079 130.099 156.706 125.003C156.333 119.907 152.835 116.013 148.871 116.301Z" fill="#1C79F6" stroke="#1C79F6" stroke-linecap="round" stroke-linejoin="round"/>
<path d="M146.09 135.04C150.054 134.751 152.966 130.388 152.594 125.294C152.222 120.2 148.708 116.305 144.744 116.593C140.78 116.882 137.868 121.246 138.24 126.34C138.611 131.433 142.126 135.329 146.09 135.04Z" fill="#F8B214" stroke="#1C79F6" stroke-linecap="round" stroke-linejoin="round"/>
<path d="M145.954 133.175C149.115 132.944 151.438 129.463 151.141 125.4C150.845 121.336 148.041 118.228 144.88 118.459C141.719 118.689 139.396 122.17 139.693 126.233C139.989 130.297 142.793 133.405 145.954 133.175Z" fill="white" stroke="#1C79F6" stroke-linecap="round" stroke-linejoin="round"/>
<path d="M146.619 125.741C146.68 126.597 146.188 127.335 145.523 127.381C144.858 127.427 144.262 126.774 144.197 125.914C144.131 125.053 144.627 124.32 145.296 124.274C145.965 124.228 146.553 124.881 146.619 125.741Z" fill="white" stroke="#1C79F6" stroke-linecap="round" stroke-linejoin="round"/>
<path d="M221.308 111.028L218.056 111.266L216.134 114.549C215.101 116.454 214.637 118.615 214.798 120.775C214.959 122.936 215.737 125.004 217.041 126.735L219.402 129.704L222.65 129.47C226.617 129.182 229.527 124.815 229.154 119.723C228.781 114.63 225.272 110.74 221.308 111.028Z" fill="#1C79F6" stroke="#1C79F6" stroke-linecap="round" stroke-linejoin="round"/>
<path d="M225.018 120.034C225.402 125.13 222.477 129.493 218.513 129.781C214.55 130.069 211.048 126.175 210.663 121.078C210.279 115.982 213.204 111.619 217.168 111.331C221.131 111.043 224.645 114.938 225.018 120.034Z" fill="#F8B214" stroke="#1C79F6" stroke-linecap="round" stroke-linejoin="round"/>
<path d="M223.569 120.137C223.865 124.204 221.539 127.684 218.379 127.914C215.219 128.145 212.413 125.038 212.117 120.971C211.821 116.904 214.143 113.428 217.306 113.198C220.47 112.967 223.269 116.074 223.569 120.137Z" fill="white" stroke="#1C79F6" stroke-linecap="round" stroke-linejoin="round"/>
<path d="M219.052 120.468C219.113 121.328 218.621 122.062 217.956 122.111C217.291 122.161 216.695 121.501 216.634 120.644C216.572 119.788 217.06 119.051 217.729 119.001C218.398 118.951 218.99 119.608 219.052 120.468Z" fill="white" stroke="#1C79F6" stroke-linecap="round" stroke-linejoin="round"/>
<path d="M244.37 82.5702C244.243 82.4549 244.109 82.3513 243.986 82.2476L214.669 84.379L215.723 98.8537L258.717 95.716L244.37 82.5702Z" fill="#1C79F6" stroke="#1C79F6" stroke-linecap="round" stroke-linejoin="round"/>
<path d="M249.698 109.234L247.991 109.361L245.431 97.6169L234.586 98.408L219.294 84.3903C218.476 83.6384 217.512 83.0619 216.462 82.6966C215.412 82.3314 214.298 82.185 213.189 82.2666L178.641 84.7821C177.83 84.841 177.038 85.0632 176.315 85.4355C175.592 85.8077 174.951 86.3222 174.432 86.9481L153.438 103.308L150.213 105.905L147.695 111.873L138.392 115.394L130.777 118.083C130.069 119.195 129.737 120.505 129.831 121.819L130.365 129.116L136.808 128.655L136.632 126.221C136.416 123.31 138.108 123.306 139.653 121.228C141.264 119.077 140.91 120.913 143.113 118.401L145.519 114.73C150.279 114.384 153.515 118.025 154.642 123.206L155.526 127.277L209.345 123.359L209.168 120.928C208.734 114.98 210.825 109.979 217.391 109.503C223.246 109.077 225.618 112.779 226.913 117.952L227.886 121.842L248.725 119.154V119.07L250.436 118.947L249.698 109.234Z" fill="#F5CD70" stroke="#1C79F6" stroke-linecap="round" stroke-linejoin="round"/>
<path d="M174.774 89.0988L156.741 103.047L192.154 100.47L191.12 86.2607L178.58 87.1786C177.85 87.23 177.137 87.4263 176.483 87.756C175.83 88.0857 175.249 88.5422 174.774 89.0988Z" fill="#1C79F6" stroke="#1C79F6" stroke-linecap="round" stroke-linejoin="round"/>
<path d="M171.576 101.972L181.77 86.9365L178.58 87.167C177.849 87.2183 177.137 87.4146 176.483 87.7443C175.83 88.074 175.249 88.5305 174.774 89.0872L168.466 93.9684L162.611 102.625L171.576 101.972Z" fill="white" stroke="#1C79F6" stroke-linecap="round" stroke-linejoin="round"/>
<path d="M192.154 100.474L191.412 90.2627L184.088 101.062L192.154 100.474Z" fill="white" stroke="#1C79F6" stroke-linecap="round" stroke-linejoin="round"/>
<path d="M218.267 86.6062L226.925 94.2487C227.212 94.5043 227.427 94.8316 227.547 95.1973C227.651 95.5101 227.681 95.8423 227.636 96.1686C227.592 96.4949 227.473 96.8068 227.289 97.0804C227.106 97.354 226.862 97.5823 226.577 97.7478C226.292 97.9132 225.973 98.0116 225.644 98.0354L194.506 100.301L193.472 86.0915L212.586 84.6936C213.613 84.6173 214.644 84.7472 215.62 85.0756C216.596 85.4041 217.496 85.9245 218.267 86.6062Z" fill="#1C79F6" stroke="#1C79F6" stroke-linecap="round" stroke-linejoin="round"/>
<path d="M210.552 84.8398L207.427 85.0664L197.232 100.106L200.361 99.8752L210.552 84.8398Z" fill="white" stroke="#1C79F6" stroke-linecap="round" stroke-linejoin="round"/>
<path d="M193.564 87.0863L194.391 98.4425L203.252 85.3696L194.283 86.0263L193.564 87.0863Z" fill="white" stroke="#1C79F6" stroke-linecap="round" stroke-linejoin="round"/>
<path d="M245.431 97.6169L268.408 95.9463C268.99 95.9041 269.569 96.0731 270.037 96.4222C270.505 96.7713 270.831 97.2773 270.956 97.8473L273.067 107.533L247.991 109.357L245.431 97.6169Z" fill="#F5BE41" stroke="#1C79F6" stroke-linecap="round" stroke-linejoin="round"/>
<path d="M267.637 101.366L256.741 102.159L257.067 106.629L267.963 105.835L267.637 101.366Z" fill="white" stroke="#1C79F6" stroke-linecap="round" stroke-linejoin="round"/>
<path d="M274.397 109.276L227.709 112.675" stroke="#1C79F6" stroke-width="2" stroke-linecap="round" stroke-linejoin="round"/>
<path d="M206.842 114.192L155.103 117.96" stroke="#1C79F6" stroke-width="2" stroke-linecap="round" stroke-linejoin="round"/>
<path d="M137.923 119.212L132.003 119.642" stroke="#1C79F6" stroke-width="2" stroke-linecap="round" stroke-linejoin="round"/>
<path d="M254.872 102.383L244.581 103.151C244.105 103.185 243.647 103.351 243.26 103.631C242.873 103.91 242.572 104.292 242.39 104.733L240.902 108.301C240.835 108.464 240.811 108.642 240.831 108.817C240.852 108.993 240.918 109.16 241.021 109.303C241.125 109.446 241.263 109.56 241.423 109.635C241.583 109.71 241.76 109.742 241.936 109.73L255.322 108.758L254.872 102.383Z" fill="#92E3A9" stroke="#1C79F6" stroke-linecap="round" stroke-linejoin="round"/>
<path d="M254.857 102.383L246.561 102.986L247.933 109.276L255.322 108.739L254.857 102.383Z" fill="#1C79F6" stroke="#1C79F6" stroke-linecap="round" stroke-linejoin="round"/>
<path d="M271.637 101.162L269.126 101.346L269.557 107.702L273.009 107.448L271.637 101.162Z" fill="#1C79F6" stroke="#1C79F6" stroke-linecap="round" stroke-linejoin="round"/>
<path d="M158.812 99.9101L153.739 100.28C153.316 100.31 152.998 100.678 153.029 101.102L153.324 105.154C153.355 105.577 153.724 105.895 154.147 105.864L159.219 105.495C159.643 105.464 159.961 105.096 159.93 104.673L159.635 100.62C159.604 100.197 159.235 99.8793 158.812 99.9101Z" fill="#1C79F6" stroke="#1C79F6" stroke-linecap="round" stroke-linejoin="round"/>
<path d="M191.502 103.145L185.149 103.608L185.335 106.147L191.688 105.685L191.502 103.145Z" fill="#1C79F6" stroke="#1C79F6" stroke-linecap="round" stroke-linejoin="round"/>
<path d="M192.949 102.034L194.356 121.328" stroke="#1C79F6" stroke-linecap="round" stroke-linejoin="round"/>
<path d="M150.628 113.789C150.628 113.789 155.472 116.074 156.722 125.003L206.116 121.409" stroke="#1C79F6" stroke-linecap="round" stroke-linejoin="round"/>
<path d="M228.931 111.923C228.931 111.923 226.041 105.751 217.887 106.343C212.209 106.757 209.71 109.934 208.522 112.384" stroke="#1C79F6" stroke-linecap="round" stroke-linejoin="round"/>
<path d="M273.736 120.982L256.368 123.314" stroke="#1C79F6" stroke-linecap="round" stroke-linejoin="round"/>
<path d="M266.478 124.089L252.739 125.902" stroke="#1C79F6" stroke-linecap="round" stroke-linejoin="round"/>
</g>
<defs>
<clipPath id="clip0_21_630">
<rect width="276" height="153" fill="white"/>
</clipPath>
</defs>
</svg>
