<svg width="77" height="18" viewBox="0 0 77 18" fill="none" xmlns="http://www.w3.org/2000/svg">
<g clip-path="url(#clip0_3286_37)">
<path d="M40.284 4.6543H40.4486V14.2871C40.4471 14.8734 40.2062 15.4352 39.7782 15.8498C39.3502 16.2644 38.7701 16.4982 38.1647 16.4999H37.8896V6.96943C37.891 6.35524 38.1435 5.76662 38.5923 5.33262C39.0411 4.89862 39.6498 4.65472 40.284 4.6543Z" fill="#00B4FF"/>
<path d="M27.4087 0.5H27.5741V9.61436L32.0038 5.31758C32.2262 5.10192 32.4904 4.93123 32.7815 4.81543C33.0726 4.69963 33.3849 4.64106 33.6996 4.64307C34.0143 4.64508 34.3249 4.70764 34.6144 4.82715C34.9039 4.94666 35.1662 5.12068 35.3856 5.33916L35.5034 5.45684L30.4646 10.344C30.3872 10.419 30.3045 10.4884 30.2169 10.552C30.3325 10.6301 30.4403 10.7183 30.5396 10.8152L35.5018 15.628L35.3106 15.82C35.101 16.0288 34.8506 16.1951 34.5741 16.3093C34.2975 16.4235 34.0002 16.4833 33.6996 16.4853C33.3989 16.4872 33.1008 16.4312 32.8227 16.3206C32.5446 16.21 32.2921 16.0469 32.0797 15.8408L27.5733 11.4696V14.256C27.5749 14.8465 27.3358 15.4137 26.9077 15.8343C26.4797 16.2548 25.8976 16.4946 25.2878 16.5016H25.0152V2.85117C25.0119 2.23229 25.2619 1.63736 25.7106 1.19668C26.1593 0.755994 26.7697 0.505495 27.4087 0.5Z" fill="#00B4FF"/>
<path d="M0.999838 14.0799V13.915L1.02888 12.0639C1.01817 11.8282 1.03159 11.5921 1.06922 11.3591V11.2327H1.09826C1.22401 10.7493 1.50996 10.3193 1.91305 10.0092C2.31614 9.69906 2.81413 9.52601 3.32885 9.5167H8.6597C8.77742 9.47589 8.88096 9.40327 8.95738 9.30742C9.0338 9.21158 9.0803 9.0965 9.0913 8.97588V7.51904C9.07535 7.43248 9.03279 7.35258 8.96948 7.28955C8.90616 7.22652 8.82525 7.18325 8.73634 7.16543H3.38936C3.07439 7.16293 2.76356 7.1002 2.47373 6.98076C2.18389 6.86133 1.92114 6.68759 1.70088 6.46953C1.48063 6.25147 1.30713 5.9934 1.19022 5.71016C1.07332 5.42691 1.01483 5.12405 1.0192 4.81904V4.6543H9.46642C9.78561 4.67952 10.0962 4.76612 10.3804 4.90908C10.6646 5.05204 10.917 5.24843 11.1218 5.48682C11.3267 5.7252 11.4801 6.00075 11.5736 6.29736C11.6671 6.59398 11.6987 6.90571 11.6664 7.21426V16.4198H11.3929C11.0807 16.4191 10.7719 16.3558 10.4861 16.234C10.2004 16.1121 9.94405 15.9344 9.73264 15.7119C9.50958 15.9608 9.23289 16.1598 8.92269 16.2953C8.61249 16.4308 8.27553 16.4995 7.93526 16.4967L3.37484 16.4543C2.84564 16.444 2.33404 16.2665 1.9187 15.9487C1.50335 15.631 1.20691 15.1904 1.07406 14.6942H1.06357V14.6535C1.0162 14.4658 0.99291 14.2731 0.994191 14.0799H0.999838ZM9.09533 11.1927C8.87796 11.4466 8.60519 11.6507 8.29667 11.7904C7.98816 11.9301 7.65143 12.0019 7.31085 12.0007L4.12993 11.9927C4.0717 11.9888 4.01299 11.9967 3.9581 12.0159C3.90321 12.0351 3.85343 12.0652 3.81128 12.1043C3.76912 12.1434 3.73588 12.1906 3.71366 12.2429C3.69144 12.2951 3.68068 12.3514 3.6822 12.4079L3.67333 13.6606C3.67333 14.0606 3.97687 14.0143 4.1743 14.0143H8.69035C8.79648 14.012 8.8983 13.9703 8.97351 13.8978C9.04873 13.8252 9.09179 13.7275 9.09452 13.6247L9.09533 11.1927Z" fill="#00B4FF"/>
<path d="M39.1429 3.59998C39.9814 3.59998 40.6612 2.94166 40.6612 2.12958C40.6612 1.3175 39.9814 0.65918 39.1429 0.65918C38.3043 0.65918 37.6245 1.3175 37.6245 2.12958C37.6245 2.94166 38.3043 3.59998 39.1429 3.59998Z" fill="#00B4FF"/>
<path d="M14.5809 13.3438L19.5745 7.15576H15.7313C15.1 7.14586 14.4986 6.89452 14.0581 6.45654C13.6176 6.01856 13.3741 5.42953 13.3805 4.81816V4.6582H21.856C23.8972 4.6582 24.0862 5.89341 22.9297 7.32461L17.5456 13.9918L21.4163 13.9766C22.0296 13.9888 22.6142 14.2317 23.0459 14.6538C23.4776 15.0759 23.7224 15.6441 23.7292 16.2382V16.5029H15.365C14.2953 16.5029 13.8131 16.2118 13.5983 15.8502C13.1671 15.1198 13.8259 14.2774 14.5809 13.3438Z" fill="#00B4FF"/>
<path d="M54.2334 8.48389H48.4177C47.9764 8.48389 47.5527 8.6536 47.2407 8.95576C46.9287 9.25792 46.7534 9.6678 46.7534 10.0951V14.8895C46.7536 15.3166 46.9295 15.7262 47.2415 16.0282C47.5535 16.3302 47.9766 16.4999 48.4177 16.4999H54.2334C54.2335 16.3177 54.1964 16.1371 54.1245 15.9687C54.0525 15.8004 53.9469 15.6474 53.8139 15.5185C53.6809 15.3896 53.5231 15.2873 53.3492 15.2176C53.1754 15.1478 52.9888 15.1119 52.8006 15.1119H49.051C48.8437 15.1119 48.6449 15.0322 48.4984 14.8902C48.3518 14.7483 48.2693 14.5558 48.2693 14.3551V10.6991C48.2693 10.5998 48.2897 10.5013 48.329 10.4096C48.3682 10.3178 48.4258 10.2345 48.4984 10.1643C48.5709 10.094 48.6569 10.0383 48.7517 10.0004C48.8465 9.96245 48.9484 9.94296 49.051 9.94307H52.8006C52.9888 9.94307 53.1754 9.90717 53.3492 9.8374C53.5231 9.76764 53.6809 9.66542 53.8139 9.53652C53.9469 9.40763 54.0525 9.25463 54.1245 9.08623C54.1964 8.91784 54.2335 8.73732 54.2334 8.55508V8.48389Z" fill="#00B4FF"/>
<path d="M61.8456 9.99668C61.9853 9.99668 62.1194 10.0503 62.2183 10.1458C62.3173 10.2413 62.3736 10.3709 62.374 10.5062V14.4759C62.3736 14.6112 62.3173 14.7408 62.2183 14.8363C62.1194 14.9319 61.9853 14.9854 61.8456 14.9854H57.5046C57.3649 14.9854 57.2309 14.9319 57.1319 14.8363C57.033 14.7408 56.9775 14.6112 56.977 14.4759V10.5062C56.9775 10.3709 57.033 10.2413 57.1319 10.1458C57.2309 10.0503 57.3649 9.99668 57.5046 9.99668H61.8456ZM61.8456 8.48389H57.5046C56.9505 8.48389 56.4193 8.69704 56.0275 9.07646C55.6357 9.45589 55.416 9.97054 55.416 10.5071V14.4767C55.416 15.0132 55.6357 15.5279 56.0275 15.9073C56.4193 16.2867 56.9505 16.4999 57.5046 16.4999H61.8456C62.3998 16.4999 62.9316 16.2867 63.3235 15.9073C63.7155 15.5279 63.9356 15.0133 63.9358 14.4767V10.5071C63.9356 9.97047 63.7155 9.45577 63.3235 9.07637C62.9316 8.69697 62.3998 8.48389 61.8456 8.48389Z" fill="#00B4FF"/>
<path d="M65.8765 10.4687V16.4991H66.1185C66.4938 16.4991 66.8542 16.3547 67.1196 16.0977C67.385 15.8407 67.5335 15.4922 67.5335 15.1287V10.5902C67.5334 10.5052 67.5508 10.4211 67.5843 10.3425C67.6178 10.2639 67.6674 10.1925 67.7295 10.1324C67.7916 10.0723 67.8654 10.0246 67.9465 9.99209C68.0277 9.9596 68.1145 9.94296 68.2023 9.94307H70.0827C70.1706 9.94296 70.258 9.95962 70.3393 9.99209C70.4205 10.0246 70.4941 10.0722 70.5563 10.1323C70.6185 10.1924 70.6678 10.2638 70.7015 10.3424C70.7352 10.421 70.753 10.5051 70.7531 10.5902V15.1287C70.753 15.3087 70.7893 15.4869 70.8604 15.6532C70.9315 15.8195 71.0355 15.9707 71.167 16.0979C71.2984 16.2252 71.4551 16.3262 71.6268 16.395C71.7985 16.4639 71.9823 16.4992 72.1681 16.4991H72.5037V10.5559C72.5038 10.4708 72.5208 10.3866 72.5545 10.308C72.5883 10.2294 72.6375 10.158 72.6997 10.0979C72.762 10.0379 72.8363 9.99018 72.9176 9.95772C72.9988 9.92525 73.0854 9.90859 73.1733 9.90869H74.8174C74.9052 9.90859 74.992 9.92523 75.0731 9.95772C75.1543 9.9902 75.2281 10.0379 75.2901 10.098C75.3522 10.1582 75.4018 10.2295 75.4354 10.3081C75.4689 10.3867 75.4855 10.4708 75.4854 10.5559V15.1287C75.4854 15.4922 75.6346 15.8407 75.9 16.0977C76.1654 16.3547 76.5259 16.4991 76.9012 16.4991H77.0004V10.4687C77.0005 10.208 76.9476 9.94998 76.8447 9.70918C76.7418 9.46838 76.5913 9.24955 76.401 9.06524C76.2108 8.88092 75.9849 8.73472 75.7363 8.63496C75.4877 8.53521 75.2212 8.48389 74.9521 8.48389H72.5142C72.3249 8.48364 72.1419 8.5502 71.9995 8.67109L71.6994 8.92393L71.4017 8.67109C71.2592 8.55045 71.0763 8.48394 70.887 8.48389H67.928C67.6587 8.48368 67.3919 8.53482 67.143 8.63447C66.8942 8.73412 66.668 8.88032 66.4775 9.06465C66.287 9.24898 66.1361 9.46788 66.033 9.70879C65.9299 9.9497 65.8765 10.2079 65.8765 10.4687Z" fill="#00B4FF"/>
<path d="M43.6962 16.4882C44.3108 16.4882 44.809 16.0057 44.809 15.4106C44.809 14.8155 44.3108 14.333 43.6962 14.333C43.0817 14.333 42.5835 14.8155 42.5835 15.4106C42.5835 16.0057 43.0817 16.4882 43.6962 16.4882Z" fill="#00B4FF"/>
</g>
<defs>
<clipPath id="clip0_3286_37">
<rect width="77.0008" height="17" fill="white" transform="translate(0 0.5)"/>
</clipPath>
</defs>
</svg>
