<svg width="24" height="24" viewBox="0 0 24 24" fill="none" xmlns="http://www.w3.org/2000/svg">
<path d="M12.0001 15.0748C11.9001 15.0748 11.8085 15.0581 11.7251 15.0248C11.6418 14.9915 11.5585 14.9331 11.4751 14.8498L6.52515 9.89981C6.39182 9.76648 6.32932 9.58731 6.33765 9.36231C6.34598 9.13731 6.41682 8.95815 6.55015 8.82481C6.71682 8.65815 6.89598 8.58731 7.08765 8.61231C7.27932 8.63731 7.45015 8.71648 7.60015 8.84981L12.0001 13.2498L16.4001 8.84981C16.5335 8.71648 16.7126 8.64148 16.9376 8.62481C17.1627 8.60815 17.3418 8.68315 17.4752 8.84981C17.6418 8.98315 17.7126 9.15815 17.6876 9.37481C17.6627 9.59148 17.5835 9.77481 17.4501 9.92481L12.5251 14.8498C12.4418 14.9331 12.3585 14.9915 12.2751 15.0248C12.1918 15.0581 12.1001 15.0748 12.0001 15.0748Z" fill="#707174"/>
</svg>
