<svg width="152" height="32" viewBox="0 0 152 32" fill="none" xmlns="http://www.w3.org/2000/svg">
<circle cx="16" cy="16" r="16" fill="white"/>
<g clip-path="url(#clip0_34_110)">
<path d="M21.5999 6.3999H10.3999C8.1911 6.3999 6.3999 8.1911 6.3999 10.3999V21.5999C6.3999 23.8087 8.1911 25.5999 10.3999 25.5999H21.5999C23.8095 25.5999 25.5999 23.8087 25.5999 21.5999V10.3999C25.5999 8.1911 23.8095 6.3999 21.5999 6.3999ZM12.7999 21.5999H10.3999V12.7999H12.7999V21.5999ZM11.5999 11.7855C10.8271 11.7855 10.1999 11.1535 10.1999 10.3743C10.1999 9.5951 10.8271 8.9631 11.5999 8.9631C12.3727 8.9631 12.9999 9.5951 12.9999 10.3743C12.9999 11.1535 12.3735 11.7855 11.5999 11.7855ZM22.3999 21.5999H19.9999V17.1167C19.9999 14.4223 16.7999 14.6263 16.7999 17.1167V21.5999H14.3999V12.7999H16.7999V14.2119C17.9167 12.1431 22.3999 11.9903 22.3999 16.1927V21.5999Z" fill="#5DA0FB"/>
</g>
<circle cx="56" cy="16" r="16" fill="white"/>
<g clip-path="url(#clip1_34_110)">
<path d="M65.5999 10.0454C64.8935 10.359 64.1343 10.5702 63.3375 10.6654C64.1511 10.1782 64.7759 9.40624 65.0695 8.48624C64.3087 8.93744 63.4655 9.26544 62.5679 9.44224C61.8503 8.67664 60.8255 8.19824 59.6927 8.19824C57.1495 8.19824 55.2807 10.571 55.8551 13.0342C52.5823 12.8702 49.6799 11.3022 47.7367 8.91904C46.7047 10.6894 47.2015 13.0054 48.9551 14.1782C48.3103 14.1574 47.7023 13.9806 47.1719 13.6854C47.1287 15.5102 48.4367 17.2174 50.3311 17.5974C49.7767 17.7478 49.1695 17.783 48.5519 17.6646C49.0527 19.2294 50.5071 20.3678 52.2319 20.3998C50.5759 21.6982 48.4895 22.2782 46.3999 22.0318C48.1431 23.1494 50.2143 23.8014 52.4383 23.8014C59.7519 23.8014 63.8839 17.6246 63.6343 12.0846C64.4039 11.5286 65.0719 10.835 65.5999 10.0454Z" fill="#5DA0FB"/>
</g>
<circle cx="96" cy="16" r="16" fill="white"/>
<g clip-path="url(#clip2_34_110)">
<path fill-rule="evenodd" clip-rule="evenodd" d="M86.3999 6.3999V25.5999H105.6V6.3999H86.3999ZM102.638 10.6484L100.382 21.499C100.329 21.7551 100.029 21.8712 99.8169 21.7172L96.7375 19.4815C96.5506 19.3458 96.2957 19.353 96.1167 19.4989L94.4094 20.8906C94.2113 21.0527 93.9127 20.9624 93.8368 20.7183L92.6513 16.9057L89.5885 15.7626C89.2773 15.6461 89.2747 15.2068 89.5849 15.0873L102.155 10.2382C102.421 10.1351 102.696 10.3686 102.638 10.6484Z" fill="#5DA0FB"/>
<path fill-rule="evenodd" clip-rule="evenodd" d="M99.6318 12.6104L93.6459 16.2971C93.4165 16.4387 93.3085 16.7158 93.3825 16.9752L94.0297 19.2493C94.0757 19.4104 94.3095 19.3939 94.3319 19.2274L94.5001 17.9804C94.5319 17.7456 94.6438 17.5291 94.8175 17.3676L99.7576 12.7755C99.8501 12.6899 99.7393 12.5444 99.6318 12.6104Z" fill="#5DA0FB"/>
</g>
<circle cx="136" cy="16" r="16" fill="white"/>
<g clip-path="url(#clip3_34_110)">
<path d="M136 8.1303C138.563 8.1303 138.867 8.1399 139.88 8.1863C142.482 8.3047 143.697 9.5391 143.815 12.1215C143.862 13.1335 143.87 13.4375 143.87 16.0007C143.87 18.5647 143.861 18.8679 143.815 19.8799C143.696 22.4599 142.484 23.6967 139.88 23.8151C138.867 23.8615 138.565 23.8711 136 23.8711C133.437 23.8711 133.133 23.8615 132.121 23.8151C129.513 23.6959 128.304 22.4559 128.186 19.8791C128.139 18.8671 128.13 18.5639 128.13 15.9999C128.13 13.4367 128.14 13.1335 128.186 12.1207C128.305 9.5391 129.517 8.3039 132.121 8.1855C133.134 8.1399 133.437 8.1303 136 8.1303ZM136 6.3999C133.393 6.3999 133.066 6.4111 132.042 6.4575C128.556 6.6175 126.618 8.5519 126.458 12.0415C126.411 13.0663 126.4 13.3927 126.4 15.9999C126.4 18.6071 126.411 18.9343 126.458 19.9583C126.618 23.4447 128.552 25.3823 132.042 25.5423C133.066 25.5887 133.393 25.5999 136 25.5999C138.607 25.5999 138.934 25.5887 139.958 25.5423C143.442 25.3823 145.384 23.4479 145.542 19.9583C145.589 18.9343 145.6 18.6071 145.6 15.9999C145.6 13.3927 145.589 13.0663 145.542 12.0423C145.386 8.5591 143.449 6.6183 139.959 6.4583C138.934 6.4111 138.607 6.3999 136 6.3999ZM136 11.0703C133.278 11.0703 131.07 13.2775 131.07 15.9999C131.07 18.7223 133.278 20.9303 136 20.9303C138.722 20.9303 140.93 18.7231 140.93 15.9999C140.93 13.2775 138.722 11.0703 136 11.0703ZM136 19.1999C134.233 19.1999 132.8 17.7679 132.8 15.9999C132.8 14.2327 134.233 12.7999 136 12.7999C137.767 12.7999 139.2 14.2327 139.2 15.9999C139.2 17.7679 137.767 19.1999 136 19.1999ZM141.125 9.7239C140.488 9.7239 139.972 10.2399 139.972 10.8759C139.972 11.5119 140.488 12.0279 141.125 12.0279C141.761 12.0279 142.276 11.5119 142.276 10.8759C142.276 10.2399 141.761 9.7239 141.125 9.7239Z" fill="#5DA0FB"/>
</g>
<defs>
<clipPath id="clip0_34_110">
<rect width="19.2" height="19.2" fill="white" transform="translate(6.3999 6.3999)"/>
</clipPath>
<clipPath id="clip1_34_110">
<rect width="19.2" height="19.2" fill="white" transform="translate(46.3999 6.3999)"/>
</clipPath>
<clipPath id="clip2_34_110">
<rect x="86.3999" y="6.3999" width="19.2" height="19.2" rx="9.6" fill="white"/>
</clipPath>
<clipPath id="clip3_34_110">
<rect width="19.2" height="19.2" fill="white" transform="translate(126.4 6.3999)"/>
</clipPath>
</defs>
</svg>
