<svg width="24" height="24" viewBox="0 0 24 24" fill="none" xmlns="http://www.w3.org/2000/svg">
<path d="M3.75 18C3.5375 18 3.35938 17.9277 3.21563 17.7831C3.07187 17.6385 3 17.4594 3 17.2456C3 17.0319 3.07187 16.8542 3.21563 16.7125C3.35938 16.5708 3.5375 16.5 3.75 16.5H20.25C20.4625 16.5 20.6406 16.5723 20.7844 16.7169C20.9281 16.8615 21 17.0406 21 17.2544C21 17.4681 20.9281 17.6458 20.7844 17.7875C20.6406 17.9292 20.4625 18 20.25 18H3.75ZM3.75 12.75C3.5375 12.75 3.35938 12.6777 3.21563 12.5331C3.07187 12.3885 3 12.2094 3 11.9956C3 11.7819 3.07187 11.6042 3.21563 11.4625C3.35938 11.3208 3.5375 11.25 3.75 11.25H20.25C20.4625 11.25 20.6406 11.3223 20.7844 11.4669C20.9281 11.6115 21 11.7906 21 12.0044C21 12.2181 20.9281 12.3958 20.7844 12.5375C20.6406 12.6792 20.4625 12.75 20.25 12.75H3.75ZM3.75 7.5C3.5375 7.5 3.35938 7.42771 3.21563 7.28313C3.07187 7.13853 3 6.95936 3 6.74563C3 6.53188 3.07187 6.35417 3.21563 6.2125C3.35938 6.07083 3.5375 6 3.75 6H20.25C20.4625 6 20.6406 6.07229 20.7844 6.21687C20.9281 6.36147 21 6.54064 21 6.75437C21 6.96812 20.9281 7.14583 20.7844 7.2875C20.6406 7.42917 20.4625 7.5 20.25 7.5H3.75Z" fill="#3E8DF7"/>
</svg>
