<svg width="8" height="13" viewBox="0 0 8 13" fill="none" xmlns="http://www.w3.org/2000/svg">
<path d="M1.93443e-07 6.48331C1.98447e-07 6.36883 0.0206167 6.26389 0.0618493 6.16849C0.103082 6.07309 0.175238 5.97769 0.278319 5.88229L6.40134 0.215493C6.56627 0.0628521 6.7879 -0.00869834 7.06622 0.000841729C7.34454 0.0103818 7.56616 0.0914723 7.73109 0.244113C7.93725 0.434914 8.02487 0.640026 7.99395 0.859447C7.96303 1.07887 7.8651 1.27444 7.70017 1.44616L2.25748 6.48331L7.70017 11.5205C7.8651 11.6731 7.95787 11.8782 7.97849 12.1358C7.9991 12.3934 7.90633 12.5985 7.70017 12.7511C7.53524 12.9419 7.31877 13.023 7.05076 12.9944C6.78274 12.9658 6.55597 12.8752 6.37042 12.7225L0.278319 7.08433C0.175238 6.98893 0.103082 6.89353 0.0618493 6.79813C0.0206167 6.70273 1.88438e-07 6.59779 1.93443e-07 6.48331Z" fill="#2A2B2F"/>
</svg>
