<svg width="8" height="13" viewBox="0 0 8 13" fill="none" xmlns="http://www.w3.org/2000/svg">
<path d="M8 6.51669C8 6.63117 7.97938 6.73611 7.93815 6.83151C7.89692 6.92691 7.82476 7.02231 7.72168 7.11771L1.59866 12.7845C1.43373 12.9371 1.2121 13.0087 0.933782 12.9992C0.655462 12.9896 0.433838 12.9085 0.268908 12.7559C0.0627451 12.5651 -0.024874 12.36 0.00605038 12.1406C0.0369747 11.9211 0.134902 11.7256 0.299832 11.5538L5.74252 6.51669L0.299831 1.47954C0.134901 1.3269 0.0421283 1.12179 0.0215121 0.864204C0.000895817 0.606623 0.0936689 0.401511 0.299831 0.24887C0.464761 0.0580692 0.681232 -0.0230208 0.949243 0.00559898C1.21725 0.0342197 1.44403 0.124849 1.62958 0.27749L7.72168 5.91566C7.82476 6.01106 7.89692 6.10647 7.93815 6.20187C7.97938 6.29727 8 6.40221 8 6.51669Z" fill="#2A2B2F"/>
</svg>
